<svg xmlns="http://www.w3.org/2000/svg" xml:space="preserve" viewBox="0 0 1280 1148"><path d="M720 1149H1V1h1280v1148zm79.65-633.797a55 55 0 0 1 3.994.768c.459-.012.918-.024 2.094.193 1.752.262 3.505.524 5.894 1.009.448.02.895.04 1.89.567 5.206.919 10.452 1.657 15.612 2.788a4369 4369 0 0 1 60.54 13.713l70.626 21.4c-.385-1.258-1.033-1.978-1.814-2.5-11.976-8.003-23.866-16.142-36.01-23.88-4.512-2.874-9.63-4.795-14.85-7.332 0 0-.42-.007-.567-.719-7.362-3.97-14.574-8.253-22.111-11.856-43.914-20.993-89.767-35.988-138.503-44.256-24.974-4.62-50.122-8.044-75.526-8.381-23.679-.315-47.37.35-71.645.44-.196.046-.393.092-1.124-.001-.337.13-.675.26-1.812.214-.782.22-1.564.44-2.81.445-.829.108-1.657.217-3.376.23-4.72.44-9.44.879-14.654 1.118-.159.081-.317.162-1.256.24-.495.16-.99.32-1.958.238-.672.14-1.343.28-2.901.394-8.054 1.064-16.153 1.868-24.155 3.237-33.927 5.806-67.452 13.316-99.675 25.663-16.55 6.341-32.833 13.379-49.178 20.241-1.248.524-2.03 2.158-3.003 3.307 0 0 .036-.025-1.042-.598-.388.603-.775 1.206-.93 1.878 0 0 .026-.241-1.026-.866-.405.592-.81 1.184-.954 1.599 0 0-.198-.244-.349-.269 0 0-.134-.073-.425-.986-.774.21-1.642.261-2.307.655-16.942 10.03-33.929 19.989-50.75 30.22-5.14 3.128-9.816 7.023-14.705 10.566l.62 1.245q2.406-.79 4.811-1.583c9.585-3.168 19.101-6.568 28.77-9.454 17.252-5.148 34.595-9.985 52.72-14.916 9.805-2.156 19.55-4.649 29.427-6.4 22.664-4.02 45.301-8.396 68.119-11.292 25.453-3.23 51.093-4.984 77.573-7.197 8.354-.409 16.708-.817 25.994-1.097 10.79-.064 21.584-.302 32.372-.157 20.238.272 40.473.765 60.71 1.169 0 0 .006-.002.382.254.579-.068 1.157-.136 2.516.065.98.154 1.955.376 2.94.453 13.692 1.07 27.396 1.992 41.074 3.214 12.723 1.137 25.418 2.588 38.713 4.268 1.11.164 2.22.329 3.84.702.18-.032.36-.063 1.282.161 2.09.277 4.18.554 6.904 1.086m-168.455 86.998s-.097.285-.589.657c-9.096 9.082-13.66 20.037-14 32.899-.4 15.264 4.164 28.329 16.465 38.925 3.449 2.525 6.769 5.252 10.368 7.539 13.453 8.548 28.65 10.734 44.112 11.234 21.81.704 42.767-1.448 60.532-16.61 12.555-10.716 18.988-23.552 17.893-39.978-.328-4.926-2.867-8.737-8.183-11.038a999 999 0 0 0-6.684-.847c-3.372.05-6.744.098-10.887-.232-.74-.245-1.479-.704-2.218-.704-14.402.018-28.805-.006-43.205.228-2.976.048-5.936 1.095-9.556 1.951-3.624 3.608-4.353 8.03-2.9 12.654 1.447 4.605 5.66 5.018 9.684 5.28 3.976.258 7.96.45 11.944.547 7.988.195 15.996.043 23.955.606 2.501.176 5.815 1.6 7.003 3.531.92 1.499-.123 5.43-1.632 6.957-3.775 3.819-7.827 8.041-12.626 10.052-20.289 8.5-40.045 6.674-58.428-5.577-9.536-6.355-14.325-15.36-13.197-27.2.902-9.468 5.89-16.294 13.043-21.926 0 0 .035.063.696-.118 1.727-1.049 3.454-2.097 5.95-3.204 7.468-1.926 14.863-4.23 22.42-5.694 13.5-2.615 26.918.289 40.34 1.44 4.878.419 10.368-1.765 12.213-5.46 3.153-6.316.306-11.77-7.787-13.88-14.507-3.782-29.286-5.771-44.3-4.828-14.828.931-29.413 3.148-43.44 10.336-1.1.613-2.2 1.227-3.967 2.106-4.245 3.419-8.49 6.837-13.019 10.354m-234.523 41.887c.453-.057.905-.114 2.14.005 15.994-.032 31.989.06 47.98-.147 8.286-.108 14.38-5.104 15.072-12.378.957-10.046-.534-19.798-7.29-27.678-3.965-4.625-9.077-8.266-13.783-12.69 0 0-.34-.106-.706-.608-2.207-1.421-4.254-3.24-6.646-4.204-26.76-10.797-53.325-9.901-78.848 3.318-21.844 11.314-34.515 31.778-28.39 60.058 2.496 8.432 5.741 16.43 13.177 22.769 9.298 8.756 20.436 14.264 32.62 17.415 18.634 4.819 37.587 4.602 56.446 1.6a127.4 127.4 0 0 0 23.477-6.099c5.937-2.164 8.241-7.767 6.634-12.316-1.649-4.664-7.374-7.156-13.297-5.981-6.134 1.216-12.262 2.704-18.466 3.279-16.49 1.526-32.723.572-48.19-6.283-21.82-9.67-27.932-29.993-13.908-48.15.3-.162.426-.411.85-1.003.165-.31.33-.62 1.136-1.17 10.455-9.882 23.395-12.376 37.086-12.012 8.38.222 16.33 2.365 22.844 8.16 3.934 3.5 4.649 7.275 1.365 11.247-.688.303-1.377.606-2.79.763-2.775.34-5.542.787-8.328.997-9.433.712-18.883 1.215-28.305 2.05-5.406.478-8.328 3.859-8.553 9.138-.217 5.114 2.727 8.84 8.057 9.64 2.596.39 5.294.102 8.616.28m552.91-2.433c2.13-3.576 5.549-6.946 6.16-10.764 2.145-13.404-2.901-24.906-12.358-34.112-12.512-12.18-28.48-16.4-45.388-17.387-11.58-.676-23.039.374-34.752 4.544-22.146 7.203-37.772 20.808-41.66 44.689-2.37 14.544-.057 28.47 10.45 40.653 7.83 8.396 16.985 14.83 27.932 18.47 13.977 4.648 28.265 7.008 43.772 5.542.756-.12 1.512-.24 3.148-.227 3.372-.392 6.743-.784 11.002-1.01 8.587-1.694 17.34-2.837 25.683-5.343 3.529-1.06 7.553-4.405 8.98-7.73 3.232-7.528-4.332-13.923-13.369-11.57-12.017 3.13-24.222 4.275-36.538 3.533-12.331-.743-24.304-3.395-34.816-10.303-9.405-6.181-15.58-14.449-14.741-26.426.821-11.714 6.787-19.837 16.939-25.706 10.085-5.832 20.846-6.852 32.567-6.27l4.104-.592c1.543.91 2.959 1.729 4.358 2.575 3.653 2.21 7.63 4.036 10.865 6.747 4.398 3.685 3.775 7.98-1.754 10.944-3.889.38-7.774.807-11.667 1.133-8.077.675-16.173 1.163-24.234 1.992-4.815.496-7.769 3.252-8.182 8.313-.536 6.568 2.957 10.52 10.026 10.592 18.117.185 36.238.247 54.356.084 2.825-.025 5.638-1.49 9.117-2.371M603.12 669.209c-.028-4.073-.056-8.146.175-12.965-.014-2.069-.027-4.138.278-7.097-.186-18.942-.257-37.886-.624-56.824-.12-6.153-3.388-9.352-9.364-10.374-7.585-1.298-12.269 3.19-13.583 12.652-1.87 13.462-3.711 26.937-6.068 40.317-.457 2.598-3.22 4.79-5.444 6.903-.503-.22-1.005-.44-2.133-.944-10.831-9.564-21.692-19.096-32.485-28.702-9.808-8.73-19.376-17.736-29.375-26.237-5.706-4.852-12.677-5.975-19.608-2.867-6.71 3.01-8.777 9.137-8.905 16.044-.27 14.476-.594 28.952-.701 43.429-.096 12.972-.002 25.948.166 38.92.045 3.532.697 7.038 4.792 9.48 2.69.458 5.558 1.75 8.034 1.216 6.646-1.43 10.343-8.532 9.767-17.79.046-.428.091-.857.748-1.514 1.07-6.846 2.115-13.697 3.216-20.539.818-5.083 1.472-10.208 2.625-15.217 1.46-6.342 5.713-7.956 10.97-4.346 2.6 1.786 5.14 3.72 7.446 5.869 15.21 14.174 30.287 28.49 45.551 42.603 3.757 3.475 7.742 6.91 12.158 9.419 7.414 4.21 16.583 2.037 19.747-5.2 2.02-4.623 1.633-10.3 2.617-16.236m175.94-5.567 1.124 16.903c.507 7.63 4.705 11.808 12.326 12.269 6.5.393 11.842-3.813 12.432-10.892 1.656-19.851 2.68-39.756 4.383-59.603.974-11.332.133-10.587-9.82-9.033-7.875 1.23-15.686 2.865-23.37 4.291 1.024 15.967 1.958 30.547 2.926 46.065m28.063-78.166c-4.97-7.114-12.386-7.718-19.638-6.007-6.081 1.434-10.291 6.213-11.204 12.71-.596 4.232-.175 8.603-.287 12.91-.075 2.86 1.405 4.119 4.02 3.57 10.143-2.129 20.253-4.417 31.427-6.876-1.381-5.6-2.628-10.657-4.318-16.307"/><path fill="#DDE1E2" d="M393.348 512.452c.998-1.118 1.779-2.752 3.027-3.276 16.345-6.862 32.628-13.9 49.178-20.24 32.223-12.348 65.748-19.858 99.675-25.664 8.002-1.37 16.1-2.173 24.845-3.164a18 18 0 0 0 2.684-.224c.495-.16.99-.32 1.969-.348.484.133.944.158.944.158l.323-.33c4.72-.44 9.44-.88 14.813-1.07 1.498.077 2.342-.094 3.186-.265.782-.22 1.564-.44 2.68-.18-.671 1.346-1.606 2.837-2.698 2.963-3.274.377-6.61.22-10.334.307-8.003.922-15.592 1.81-23.18 2.697l-1.002 1.476c7.05-.106 3.152 5.544 5.658 8.403l2.063-3.331c2.241 5.406 1.983 5.682-4.107 5.056-1.885 4.06-3.763 8.058-5.574 12.085-.17.376-.038 1 .158 1.41 1.752 3.652 3.55 7.283 5.236 10.72 2.035-.092 3.984-.783 5.21-.127 4.376 2.343 8.727 4.305 13.85 3.49l.051 1.904c-25.559 2.396-51.2 4.15-76.652 7.38-22.818 2.896-45.455 7.272-68.119 11.292-9.876 1.751-19.622 4.244-29.813 6.007 1.067-1.479 2.371-3.083 4.002-3.552 4.885-1.407 9.899-2.37 14.948-3.527-1.705-2.93-8.626-6.28-10.81-4.748-2.816 1.974-3.939.39-5.18-1.408-1.877-2.72-3.566-5.57-4.767-7.468z"/><path fill="#D8DADB" d="M740.995 625.13c3.371-.05 6.743-.099 10.66.249 2.58.53 4.617.663 6.654.797 4.8 1.954 7.34 5.765 7.668 10.691 1.095 16.426-5.338 29.262-17.893 39.978-17.765 15.162-38.721 17.314-60.532 16.61-15.462-.5-30.659-2.686-44.112-11.234-3.6-2.287-6.92-5.014-10.14-7.863.737-.355 1.248-.385 2.1-.339 3.066 2.039 5.81 3.857 8.8 1.499.513-2.855.335-5.771 1.593-7.793 1.32-2.12 4.016-3.383 6.39-5.238-4.49-3.33-3.984-5.956.378-8.345-4.795-3.666-3.103-11.395-10.393-13.052 3.72-1.43 4.843-2.149 4.563-6.887-.42-7.09 2.477-12.705 6.671-17.628 2.113-2.479 5.783-3.631 8.748-5.383-7.213 5.59-12.2 12.415-13.103 21.883-1.128 11.84 3.66 20.845 13.197 27.2 18.383 12.25 38.14 14.077 58.428 5.577 4.8-2.01 8.85-6.233 12.626-10.052 1.509-1.527 2.553-5.458 1.632-6.957-1.188-1.931-4.502-3.355-7.003-3.531-7.96-.563-15.967-.41-23.955-.606-3.984-.097-7.968-.289-11.944-.547-4.024-.262-8.237-.675-9.684-5.28-1.453-4.624-.724-9.046 3.583-12.633 2.474.262 4.265.503 6.045 1.097a35 35 0 0 1-1.931 2.95l.505 10.703h15.88l2.256-1.48c-10.915-.234-5.203-4.608-3.955-7.796-2.857-1.521-7.625.496-7.263-4.717 13.15-.002 25.832.068 38.512-.083 1.68-.02 3.346-1.166 5.019-1.79m-81.064 37.34-3.85-1.83c-.036 1.134-.072 2.268-.413 4.048l-2.116 12.237-4.133-3.797c-.334 3.942-2.016 7.727 2.131 9.682 1.604.756 4.03-.233 6.71-.486 1.11 2.54 2.755 5.902 7.58 3.902.472-.196 1.436 1.227 2.28 1.412 3.768.826 7.564 1.84 11.375 1.95 1.052.031 2.188-2.819 3.286-4.347-1.473-.442-2.918-1.053-4.423-1.294-3.89-.621-7.807-1.08-11.873-1.624 2.62-3.75 4.566-6.538 6.736-9.42l.018-.295s-.237.394-.966.367c-1.65-1.203-3.363-2.328-4.933-3.626a83 83 0 0 1-7.41-6.88m40.546 26.548-1.343.29.137.467c.582-.247 1.165-.494 1.206-.757m-50.954-21.313c.07.063.14.126 0 0m-3.031 11.85s-.037-.074 0 0m-1.075-2.076s.099-.057 0 0m40.137-42.969s-.073.037 0 0"/><path fill="#B7BABC" d="M566.983 641.161c.503.22 1.005.44 1.901 1.046.972.858 1.55 1.33 2.03 2.158-8.971 3.08-.717 7.485-1.524 10.949 1.68.164 3.24.82 4.222.327 4.508-2.268 9.583-4.142 12.98-7.605 1.961-2 1.02-6.766 1.571-10.257.5-3.164 1.251-6.287 1.891-9.428l1.981.21c.656 3.825 1.312 7.65 1.81 11.824-.31 1.473-.627 2.602-.588 3.718.184 5.217.874 10.451.596 15.637-.272 5.081-.737 9.88 4.153 13.573.319 1.808.644 3.226.976 4.99.021.809.036 1.272.044 2.117-1.018 6.79-10.832 11.716-16.082 8.258-3.686-2.428-7.177-5.188-10.552-8.039-4.921-4.157-9.846-8.34-14.422-12.864-4.205-4.157-7.951-8.78-12.677-14.066-4.25.093-8.496-4.254-7.521-9.53-4.874.754-8.314-2.06-9.732-6.688-2.859-1.631-4.465-2.548-5.867-3.72 1.497-.62 2.791-.985 4.085-1.35l-2.751-1.408-7.779-14.78c-3.64 2.329-3.615 2.544.766 5.916-3.691 5.527-7.872 1.069-10.601-.41-4.342-2.353-2.77-7.01-1.334-11.224l3.141 1.78c1.712-1.867 2.826-3.977 4.546-4.771 3.525-1.628 5.343-3.6 4.112-7.492 2.247 2.053 4.184 4.028 5.978 6.125.116.135-.867 1.21-1.46 1.671-.386-.238-.652-.3-.918-.362.35.176.699.352 1.147.878 5.455 3.515 12.555 4.794 13.636 12.714 1.429-.223 3.73-1.248 4.446-.579 3.457 3.23 6.556 6.856 9.635 10.468 1.266 1.486 1.93 3.514 3.28 4.892 1.992 2.034 4.352 3.708 5.87 4.967 2.768.555 5.031 1.094 7.325 1.404.506.068 1.122-.678 1.686-1.049"/><path fill="#C2C6C9" d="M702 504.997c-20.237-.4-40.472-.894-60.71-1.166-10.788-.145-21.581.093-32.863-.298-1.094-1.122-1.632-2.29-2.31-2.378-8.112-1.059-16.259-1.858-24.36-2.988-1.423-.199-3.103-1.343-3.858-2.554-.494-.793.154-2.696.841-3.74 1.26-1.913 2.925-3.56 4.362-5.248-1.37-1.946-3.08-3.664-3.852-5.732-.47-1.261-.026-3.734.932-4.492 2.688-2.122 5.857-3.637 9.184-5.305 1.761 2.134 3.175 4.182 4.588 6.23l1.264-.896-.884-4.137c9.241-.546 13.988-7.757 20-11.709 2.11 1.04 4.103 2.803 6.1 2.81 2.574.008 5.153-1.392 7.729-2.185l.397 1.055 2.046-2.878c4.487 0 7.94.354 11.289-.081 5.266-.685 6.6.168 6.858 5.94-1.16 2.285-2.073 4.325-3 6.396l-8.387-4.376-10.393 12.739-4.4-3.734c-5.06 1.9-9.63 3.559-14.147 5.35-1.335.53-3.124 1.155-3.625 2.236-.63 1.36-.152 3.235-.152 6.201l4.098-4.697 1.491.578-2.56 11.496c5.091.469 9.4-.103 12.732 1.437 3.573 1.65 4.127.699 4.46-2.382 2.98 3.237 2.97 3.204 7.299 2.008.923-.255 1.952-.303 2.913-.222 6.315.532 12.624 1.126 19.176 1.698.24-.003.72-.002 1.058.154 2.455.06 4.572-.037 7.068-.133 2.304-.078 4.232-.111 6.154-.247 5.054-.357 10.1-.832 15.159-1.12 5.099-.292 10.208-.415 15.572-.408 1.407.61 2.545 1.335 3.7 1.364 5.078.129 10.16.056 15.385.056 2.047-7.87 6.122-3.347 9.534-2.655 1.5-1.51 3.218-2.831 4.852-2.735 6.486.381 10.196-1.687 12.434-7.67l13.494-.615c6.052-5.607 6.052-5.607 4.169-11.813 2.88.257 5.357.597 7.84.646 1.108.022 2.228-.54 3.729-.836 2.143.66 3.9 1.32 5.637 2.387-.021 1.875-.021 3.341-.021 4.495l5.461 1.852.086 1.3c-5.487.331-5.538 10.364-13.28 6.673-3.708 6.789-18.858 9.634-24.713 5.502-3.616.721-6.44 1.148-9.187 1.866-3.732.976-8.652.226-9.789 5.964a84 84 0 0 1-5.353-1.002c.42.002.588.003 1.02-.114.768-.776 1.272-1.436 1.776-2.095-.681.072-1.362.144-2.271.398-.408.728-.588 1.272-1 1.658-6.75-.16-13.265-.16-20.072-.16zm66.099-28.775.294.013s-.393-.236-.634-.592l-.804-.185c.348.18.697.362 1.144.764m-45.96 21.485c-.085 0-.172 0 0 0m-119.693-4.217s.072-.037 0 0m36.064-32.037s.031.065 0 0m-14.021 5.101s-.037-.073 0 0m7.02.894s.036.07 0 0"/><path fill="#D8DADB" d="M779.045 663.173c-.951-15.049-1.885-29.63-2.908-45.596 7.683-1.426 15.494-3.062 23.368-4.29 9.954-1.555 10.795-2.3 9.821 9.032-1.704 19.847-2.727 39.752-4.383 59.603-.59 7.08-5.932 11.285-12.432 10.892-7.621-.461-11.819-4.64-12.326-12.27-.375-5.633-.749-11.268-1.14-17.37"/><path fill="#B7BABC" d="M662.12 611.17c-2.935 1.774-6.605 2.926-8.718 5.405-4.194 4.923-7.09 10.538-6.671 17.628.28 4.738-.844 5.457-4.563 6.887 7.29 1.657 5.598 9.386 10.393 13.052-4.362 2.39-4.867 5.015-.378 8.345-2.374 1.855-5.07 3.118-6.39 5.238-1.258 2.022-1.08 4.938-1.592 7.793-2.99 2.358-5.735.54-8.843-1.876-1.081-2.085-1.516-4.94-2.517-5.154-8.406-1.803-6.562-11.495-12.145-15.349-.48-.33-.53-1.55-.482-2.338.465-7.701 1.665-15.428 1.327-23.09-.387-8.768 3.963-14.788 9.128-20.846.78-.917.318-2.893.43-4.38 0 0 .097-.284.609-.106 2.036-.14 4.373.05 4.944-.863 2.316-3.71 9.21-3.628 8.23-9.935 1.1-.613 2.2-1.227 3.695-1.541 2.69.136 5.229.539 7.221-.323 2.992-1.294 5.412-4.751 8.856-.667.45.533 2.191-.023 3.67-.064.785.009 1.233.007 1.679.01-.003.004.005-.003.035.318.355 1.114.681 1.907 1.005 2.958-.006.43-.01.602-.404.757-2.123.206-3.859.428-4.97.57v6.849l.754-1.131c1.532.918 3.064 1.835 4.223 2.76-1.134 1.3-1.895 2.591-2.978 4.04-1.989 1.881-6.156.963-5.543 5.095 0 0-.035-.063-.005-.042m-13.641-17.668s.034-.005 0 0"/><path fill="#D8DADB" d="M364.259 616.073c-13.588 18.082-7.476 38.406 14.343 48.075 15.468 6.855 31.7 7.81 48.191 6.283 6.204-.575 12.332-2.063 18.466-3.279 5.923-1.175 11.648 1.317 13.297 5.98 1.607 4.55-.697 10.153-6.634 12.317a127.4 127.4 0 0 1-23.477 6.1c-18.859 3-37.812 3.218-56.445-1.601-12.185-3.151-23.323-8.66-32.785-17.709-.165-.293-.15-.303.259-.273 2.064.489 4.087.495 5.303 1.49 3.703 3.027 6.505 7.881 12.568 4.682.574-.303 1.758.55 2.39.907-.575.329-.883.616-1.19.904l.588.498c.287-.484.575-.968 1.15-1.504.419-1.239.551-2.425.592-2.789 5.333-3.224 10.218-6.176 15.17-8.816.743.67 1.419 1.026 2.094 1.381l.39-1.125c-.835-.207-1.67-.413-2.582-.962-3.353-2.65-6.37-5.614-10.946-4.63-.001-.002-.005-.005-.069-.327-1.51-3.265-2.433-6.673-4.527-9.045-3.3-3.738-5.25-7.893-6.226-12.944.378-2.128.598-3.906.815-6.024-.016-.795-.03-1.25-.03-2.105 2.075-5.105 4.048-9.852 6.296-14.466.325-.668 1.966-.694 2.999-1.018m79.099 57.209c-6.51-.97-12.9-.752-19.68 1.533l3.241 4.474-3.835 3.026c2.567 7.028 2.536 6.93 9.182 4.883 1.658-.51 3.586-.25 5.384-.184 7.227.263 11.147-2.202 14.263-9.373-2.578-1.48-5.221-2.998-8.555-4.36m-24.276 2.215-3.945-.528-.042 1.327c1.312-.068 2.625-.136 3.987-.8m-36.407-2.538-1.425.325.637 1.144c.304-.308.608-.617.788-1.469m38.75 16.322-1.23-1.008-.513 1.1c.449.098.897.196 1.743-.092m-48.84-17.506c-.022.512-.06 1.026-.034 1.536.002.033.496.04.761.06-.08-.5-.161-1-.726-1.596m50.923 17.667s.037.072 0 0m-11.948-13.925s-.08.041 0 0m-35.008-1.006s-.072.036 0 0m74.93-3.948s-.039-.076 0 0"/><path fill="#C2C6C9" d="M425.91 622.128c.69-.302 1.378-.605 2.509-.517 3.004.866 5.566 1.34 8.394 1.864-1.193-6.258-7.56-11.048-2.103-16.308l-10.746-8.114 1.291 5.033c-3.98-1.22-7.963-1.73-11.13-3.61-3.258-1.937-5.721-5.212-9.292-8.629l5.154-2.931c-.308-1.85-.648-3.896-.555-5.929 5.453 1.223 10.442 2.574 15.497 3.607 5.306 1.085 9.121 7.275 15.522 4.5 0 0 .341.106.219.607 1.161 3.398 1.875 6.815 3.901 9.036 1.808 1.982 4.507 2.863 2.651 6.252-.076.14 1.302 1.445 2.139 1.648 3.059.743 7.703 8.097 7.3 10.979-.529 3.786-.452 7.656-.636 11.49-1.222 2.702-2.624 6.99-7.536 6.36-.218-.028-.645.354-.722.618-1.503 5.114-4.83 2.712-7.768 1.914.001.002.006.007-.165-.294-2.574-.54-4.977-.78-7.475-1.029l-.812-3.608c-1.291 1.461-1.939 2.549-2.885 3.204-5.353 3.705-11.387 4.4-18.12 3.743-2.465-.005-4.496-.003-6.943-.01-1.809-.01-3.2-.011-4.647-.29-1.016-.116-1.975.044-3.198-.031-3.32-1.823-8.57-1.795-5.51-7.83-.249-.694-.744-1.26-1.217-2.118.332-.765.64-1.238 1.114-1.59.404-.3.643-.718.871-1.142-.01-.007-.004.014.206-.1.467-.318.65-.574.994-1.12 1.314-.419 2.395-.602 2.63-.641l.429 6.957c1.275-1.367 1.517-1.547 1.656-1.787 2.342-4.018 13.423-7.71 16.206-3.454l-4.344.405c4.16 2.591 7.288 4.902 9.909.267.262-.464 1.513-.368 2.32-.316.165.433.317.65.469.868.052-.127.185-.312.142-.372-.182-.256-.417-.475-.42-.973 1.707-2.38 3.205-4.495 4.702-6.609m-7.71 18.151-.576-1.713-1.074.434c.381.407.763.815 1.65 1.28m13.24-6.792s.076-.039 0 0m-.995-1.996s.07-.036 0 0m-28.91.014s-.053.022 0 0M920.962 621.88c4.734-2.932 5.357-7.227.96-10.912-3.235-2.711-7.213-4.537-10.866-6.747-1.4-.846-2.815-1.665-4.358-2.575-1.093.158-2.599.375-4.213.196-1.846-1.21-3.537-2.605-5.326-2.744-10.114-.784-19.32 2.531-27.924 7.362-8.345 4.686-14.83 10.814-17.57 20.838-1.672 6.114-.808 11.766-.943 17.664-1.444.363-2.582.71-3.877.76-1.733-2.312-3.31-4.325-5.776-7.473l4.48 1.127c-.208-5.039-3.983-8.983-9.7-9.705.265 2.463.815 4.824.698 7.152-.167 3.35.105 7.197-4.847 8.224-.776.687-1.237 1.32-2.027 1.952l-1.915-.01-1.027.001c-.233 0-.7.007-.665-.337a45 45 0 0 1 1.085-3.927c2.045-2.75 3.952-5.237 5.817-8.065a72 72 0 0 1 1.2-6.891c.721-.738 1.276-1.246 2.075-1.983-1.017-5.144-.177-9.66 3.141-13.699 1.686 1.039 3.034 2.003 4.823 3.283.394-1.556.771-2.322.75-3.075-.199-7.082 5.178-10.246 10.081-12.967 4.435-2.46 5.552-4.833 2.043-8.689 2.745-1.772 5.335-3.222 8.304-4.717 6.328-1.228 12.264-3.295 18.231-3.392 9.783-.159 19.587.963 29.39 1.866.347.934.685 1.545 1.022 2.156.673-.532 1.346-1.064 2.395-1.54 3.15 1.22 5.924 2.383 8.364 3.678-5.608.131-10.881.131-16.935.131l2.729 4.063c-2.518 1.689-2.518 1.689-.872 7.414 2.38-2.924 5.486-2.631 7.263.629.602 1.104 1.345 2.145 2.124 3.136 2.703 3.44 5.92 6.578 8.058 10.334 2.634 4.623-.922 9.605-6.222 9.141.02-.774.025-1.217.03-1.66m-75.938-2.312 1.98 3.156c.9-.615 2.388-1.105 2.551-1.876.213-1.002-.627-2.228-1.014-3.357-1.148.437-2.297.874-3.517 2.077m-4.974 3.47c.812.294 1.986 1.058 2.353.775.622-.479 1.16-1.752.944-2.447-.24-.771-1.361-1.27-2.099-1.886-.411.956-.823 1.911-1.198 3.559m4.511 4.22 1.69.186.016-.87c-.566.046-1.13.091-1.706.684"/><path fill="#C7CBCD" d="M566.67 641.02c-.251.512-.867 1.258-1.373 1.19-2.294-.31-4.557-.849-7.325-1.404-1.518-1.259-3.878-2.933-5.87-4.967-1.35-1.378-2.014-3.406-3.28-4.892-3.079-3.612-6.178-7.238-9.635-10.468-.716-.67-3.017.356-4.446.579-1.081-7.92-8.18-9.2-13.64-12.711-.101-.347-.104-.342-.104-.342.472-.638 1.455-1.713 1.34-1.848-1.795-2.097-3.732-4.072-5.986-6.116-.35-.042-.34-.05-.46-.262-.328-.47-.587-.66-1.182-.905-2.363.018-4.44.158-7.344.355l3.476-2.62c-2.28-1.36-4.008-2.343-5.687-3.404-3.992-2.52-7.736-5.644-12.044-7.358-1.873-.746-5.533.707-7.227 2.35-2.43 2.357.379 3.32 2.281 4.447.694.41.594 2.16.88 3.4l-6.509-1.794-.482 1.076 2.33 3.298c-1.298.928-2.97 1.487-3.205 2.412-.704 2.758-1.037 5.651-1.168 8.508-.43 9.395-1.787 18.926-.689 28.155.828 6.956 4.875 13.529 7.489 20.272l1.966-.644-.846-5.957c1.77.38 3.85.2 4.582 1.107 1.833 2.27 3.055 5.034 4.52 7.918-.009.74-.016 1.164-.23 1.711-.467.326-.664.577-.755 1.227-.46 2.635-.963 4.92-1.592 7.782.628.333 2.177 1.15 3.725 1.968-.046.43-.091.859-.522 1.597-4.391 1.384-1.093 7.349-5.595 8.09-1.427 8.009-1.797 8.2-10.374 6.138-.468-.112-1.214.931-1.83 1.437-3.712-1.843-4.364-5.349-4.41-8.88-.167-12.973-.261-25.949-.165-38.921.107-14.477.431-28.953.7-43.429.13-6.907 2.195-13.034 8.906-16.044 6.931-3.108 13.902-1.985 19.608 2.867 9.999 8.501 19.567 17.508 29.375 26.237a4072 4072 0 0 0 32.798 28.844m-75.61 38.727.081.853c.094-.3.188-.602-.082-.853m1.381-25.258s.076-.039 0 0"/><path fill="#D8DADB" d="M780.063 475.94c-1.757-.66-3.514-1.318-5.945-2.106-8.494-2.014-16.316-3.9-24.468-5.813-1.117-.343-1.904-.66-2.647-1.406.067-.715.091-1.002.115-1.288 48.063 8.04 93.916 23.034 137.83 44.027 7.537 3.603 14.75 7.887 21.811 12.193-5.559-2.057-10.9-4.286-16.049-6.897-4.28-2.17-6.023-1.43-6.334 2.924-2.062.1-4.37-.385-6.036.434-2.369 1.166-4.266 3.29-6.707 5.05-1.409.495-2.5 1.37-3.537 1.312-2.887-.163-7.005.313-8.354-1.334-2.507-3.06 1.21-4.538 3.534-6.078.681-.451.82-1.72 1.208-2.615-1.013-.182-2.02-.484-3.038-.523-3.186-.12-7.092 1.022-9.428-.419-6.958-4.29-12.491-2.176-18.235 1.645-3.133.096-6.088 1.327-9.06 1.372-3.568.053-7.151-.905-10.721-1.817 1.075-1.538 1.989-2.91 3.248-3.778 2.004-1.383 5.519-1.979 6.13-3.709 1.681-4.748 4.223-4.04 7.65-1.943 2.433-7.336 7.055-1.358 11.196-1.857-2.138-6.033-3.34-11.983-10.2-13.967-1.48 4.133-1.48 4.133-4.048 1.357-1.025-.79-2.017-1.258-3.329-1.724-.75.005-1.177.009-1.955-.041-2.827-1.606-5.685-4.834-7.707-4.376-4.806 1.09-7.859-2.658-12.311-2.878-6.637-.327-13.126-3.642-19.78-5.834-.39-.057-.68.037-1.28.123zm63.67 22.43-.316 1.694 1.25-.325c-.143-.52-.286-1.038-.933-1.368"/><path fill="#D0D3D5" d="M393.36 512.468c3.69-1.095 7.394-2.174 12.252-3.59 1.201 1.898 2.89 4.748 4.767 7.468 1.241 1.799 2.364 3.382 5.18 1.408 2.184-1.532 9.105 1.817 10.81 4.748-5.05 1.156-10.063 2.12-14.948 3.527-1.631.47-2.935 2.073-4.412 3.534-17.329 5.342-34.672 10.18-51.923 15.327-9.67 2.886-19.186 6.286-28.771 9.454-1.603.53-3.208 1.055-4.812 1.583l-.62-1.245c4.89-3.543 9.565-7.438 14.707-10.565 16.82-10.232 33.807-20.19 50.75-30.221.664-.394 1.532-.444 2.25-.027.174.546.403.465.632.383 0 0 .198.244.514.295.774-.307 1.232-.666 1.69-1.025 0 0-.026.24.304.153.78-.465 1.23-.841 1.678-1.217 0 0-.036.025-.048.01"/><path fill="#BCC1C3" d="M364.477 616.035c-1.25.362-2.892.388-3.217 1.056-2.248 4.614-4.22 9.36-6.6 14.452-1.506 1.137-2.692 1.887-3.878 2.638l.876 1.24 3.338-1.419c-.22 1.778-.439 3.556-1.036 5.532-1.54-.542-2.702-1.282-5.26-2.911 0 3.595-.363 6.043.086 8.332.641 3.27-2.338 6.247-5.837 6.023-4.629-.297-9.295-.015-13.99-.271-.36-.758-.676-1.226-.747-1.963 4.121-2.48 3.29-5.548 1.689-8.883-.364-.05-.631.046-1.27.058-2.837-3.324-1.473-6.068.6-8.862.778-1.046 1.812-2.77 1.446-3.652-1.916-4.62-1.425-8.083 4.1-9.93-1.927-2.394-3.721-4.286.83-5.659 2.015-.607 3.293-3.68 4.885-5.651 1.007-1.247 1.977-2.524 3.774-4.827-.225-3.411 3.005-6.14 10.035-6.214 4.307.984 8.283 1.811 13.347 2.864l7.538-1.538c1.03 2.415 1.911 4.484 2.435 6.575-3.71.002-4.913 4.832-9.632 3.272-2.526-.835-3.905 3.495-2.974 7.097.018.866.037 1.36.055 1.856.05.337-.074.586-.593.785"/><path fill="#D0D3D5" d="M667.989 588.976c-1.144.051-2.885.607-3.335.074-3.444-4.084-5.864-.627-8.856.667-1.992.862-4.531.459-6.906.258 13.317-7.422 27.902-9.639 42.73-10.57 15.014-.943 29.793 1.046 44.3 4.828 8.093 2.11 10.94 7.564 7.787 13.88-1.845 3.695-7.335 5.879-12.212 5.46-13.423-1.151-26.842-4.055-40.34-1.44-7.558 1.464-14.953 3.768-22.798 5.403-.375-.72-.372-1.148-.369-1.576.761-1.292 1.522-2.583 2.809-3.607 1.531.876 2.536 1.484 4.696 2.791l-2.001-6.57.934-.696 4.732 4.53c1.318-1.527 2.395-3.286 3.93-4.427 2.054-1.525 4.338-3.078 6.756-3.673 2.254-.555 4.813.128 7.546.284.729 3.892 8.861 6.145 15.329 3.226.2-4.514-.69-8.288-6.76-8.6l.437-1.202 11.12-2.478c-6.99-2.48-13.801-4.419-21.012-.861-3.033-4.165-7.96-.37-12.208-.985-.66-.095-1.864 3.562-2.934 5.72-2.739-2.514-4.576-1.476-6.023 2.352-.96 2.543-2.37 2.646-4.313 1.282.004-.172.009-.344.34-.853.853-1.511 1.38-2.685 2.17-4.446l-3.53 1.246s-.008.007-.054-.28c-.361-.588-.678-.89-.994-1.19zm53.569-4.463s-.077.04 0 0M828.012 491.024c2.535 2.456 2.535 2.456 4.013-1.677 6.86 1.984 8.063 7.934 10.2 13.967-4.14.5-8.762-5.48-11.195 1.857-3.427-2.096-5.969-2.805-7.65 1.943-.611 1.73-4.126 2.326-6.13 3.709-1.26.869-2.173 2.24-3.49 3.99a42 42 0 0 0-.785 2.42c-.448-.02-.895-.04-1.72-.531-2.194-3.237-4.104-4.17-6.234-.767-.459.012-.918.024-1.793-.382-1.685-1.128-2.954-1.838-4.598-2.602-2.458.267-4.54.589-6.624.91-.18.032-.361.063-.946-.264-1.423-2.403-2.566-3.174-4.022-.71-12.708-1.313-25.403-2.764-38.126-3.901-13.678-1.222-27.382-2.144-41.073-3.214-.986-.077-1.961-.299-3.68-.643-1.211-.17-1.682-.15-2.153-.131 0 0-.006.002-.006 0l.7-2.312c6.807 0 13.323 0 20.07.157l.225.153c1.734.334 3.469.669 5.97 1.052 3.597-.613 6.399-1.456 9.262-1.894 3.91-.6 7.86-1.037 11.808-1.266 2.918-.17 3.865 1.737 4.262 4.43.099.668 2.27 1.207 3.556 1.474 1.345.28 2.775.131 4.164.224 5.727.384 11.599.131 17.14 1.363 6.038 1.343 9.484-2.508 13.7-5.006 2.344-1.389 4.298-3.954 6.759-4.502 3.427-.763 5.318-4.31 10.053-3.38 4.86.956 10.682-.706 13.375-6.499a4.3 4.3 0 0 1 1.616.243c.335.424.337.595.115.877a8.4 8.4 0 0 0-1.028 1.226l.403.236c.284-.525.567-1.05 1.143-1.444 1.102.385 1.91.64 2.719.894m-81.74 13.86 1.602-1.027-1.1-1.198c-.223.542-.445 1.084-.502 2.225m46.217 1.671s-.038-.074 0 0m39.959-6.066s.072-.036 0 0"/><path fill="#C7CBCD" d="M746.781 465.212c.313.401.29.688-.124 1.438-7.125 2.5-13.174-1.468-19.654-1.746-4.22-.182-8.43-.616-13.543-1.006-.12-.092-1.166-1.59-2.367-1.725-5.283-.595-10.608-.838-15.924-1.093-.72-.035-1.472.58-2.509.757-1.751-.041-3.203.055-4.657.158-.003.005.005-.005-.058-.322-7.496-3.277-14.316-2.195-17.655 1.454-3.776.54-6.3.87-8.813 1.27-3.162.502-6.315 1.062-9.513 1.32-.682-.424-1.323-.568-2.214-.715L649 465c-.505-5.526-1.839-6.379-7.105-5.694-3.35.435-6.802.08-11.29.08-.162.23-1.104 1.554-2.045 2.88l-.397-1.056c-2.576.793-5.155 2.193-7.728 2.185-1.998-.007-3.99-1.77-6.1-2.81-6.013 3.952-10.76 11.163-20.001 11.709l.884 4.137-1.264.896c-1.413-2.048-2.827-4.096-4.609-6.606-2.01-3.52-3.65-6.578-5.291-9.635 3.31-.052 6.646.104 9.92-.273 1.092-.126 2.027-1.617 3.099-2.875.402-.521.74-.651 1.472-.49.703.144 1.011-.002 1.319-.147 23.685-.234 47.376-.898 71.055-.583 25.404.337 50.552 3.76 75.862 8.495m-152.459 3.596 2.623-2.555-1.737-.996c-.455 1.055-.91 2.11-.886 3.551m8.152-4.638 1.022-.196c-.338-.077-.677-.154-1.022.196m58.016-5.61s-.036-.071 0 0m-66.04 11.93s.068-.034 0 0M828.023 646.991c.44.002.88.004 1.961-.049 1.105-.686 1.568-1.318 2.03-1.95 4.638-.972 4.366-4.819 4.533-8.169.117-2.328-.433-4.689-.698-7.152 5.717.722 9.492 4.666 9.7 9.705l-4.48-1.127c2.466 3.148 4.043 5.161 5.42 7.48a94 94 0 0 1-4.067 3.343l6.575 18.213-1.43.9c-2.808-5.494-6.588-1.432-9.993-1.835.811 7.022 1.295 7.465 10.015 9.293-.044 2.154-.211 4.811 3.41 3.602-.007.249-.009.748-.121.798-.113.05-.122.363-.122.363s.251-.396.4-.493c.045-.368-.058-.639.14-1.18 4.103-.089 7.907.093 11.707.27-.003-.003-.01-.01-.042.322.618 1.113 1.147 2.408 1.936 2.593 4.775 1.119 9.608 1.984 14.422 2.934l-.101.79-10.067-.624c4.204 2.365 8.498 4.704 12.82 4.755 9.418.11 18.846-1.087 28.282-1.419 2.23-.078 4.506 1.149 6.759 2.068l-.01 1.465c-3.372.392-6.743.784-10.625.791-1.464-.132-2.418.119-3.371.37-14.774 1.708-29.062-.652-43.04-5.3-10.946-3.64-20.101-10.074-28.002-19.195-1.302-4.808-2.535-8.893-3.861-13.287-2.32-.105-4.044-4.908-2.071-8.269 0 0 .466-.007.805.14.621.05.904-.048 1.186-.146m6.15 14.535-.198-1.027c-.077.34-.154.68.197 1.027m11.314 15.043s-.049-.09 0 0m-10.92-10.054s-.09.049 0 0"/><path fill="#D0D3D5" d="M583.64 461.12c2.054 3.022 3.695 6.08 5.357 9.514-2.958 2.13-6.127 3.645-8.815 5.767-.958.758-1.402 3.23-.932 4.492.771 2.068 2.481 3.786 3.852 5.732-1.437 1.689-3.103 3.335-4.362 5.248-.687 1.044-1.335 2.947-.841 3.74.755 1.21 2.435 2.355 3.859 2.554 8.1 1.13 16.247 1.93 24.358 2.988.679.088 1.217 1.256 1.845 2.313-8.329.8-16.683 1.208-25.497 1.526-.478-.726-.495-1.361-.513-1.996-5.122.815-9.473-1.147-13.849-3.49-1.226-.656-3.175.035-5.21.126-1.685-3.436-3.484-7.067-5.236-10.72-.196-.41-.327-1.033-.158-1.409 1.811-4.027 3.69-8.025 5.574-12.085 6.09.626 6.348.35 4.107-5.056l-2.063 3.33c-2.506-2.858 1.392-8.508-5.658-8.402l1.001-1.476c7.59-.887 15.178-1.775 23.18-2.697m-14.421 5.195h-1.972l.507 1.258c.586-.257 1.171-.513 1.465-1.258m-8.481 21.18c.25-.237.503-.472.738-.723.006-.007-.183-.196-.282-.3-.25.238-.5.476-.456 1.023"/><path fill="#BCC1C3" d="M571.012 644.01c-.578-.473-1.156-.945-1.865-1.67 1.568-2.632 4.33-4.824 4.788-7.422 2.357-13.38 4.198-26.855 6.068-40.317 1.314-9.462 5.998-13.95 13.583-12.652 5.976 1.022 9.245 4.221 9.364 10.374.367 18.938.438 37.882.12 57.308-2.844 2.947-3.444 5.29-.032 7.358.027 4.074.055 8.147-.3 12.287-1.41-9.134-1.41-9.134-2.888-9.744-.267 4.457-.535 8.933-1.062 13.41-.431-.006-.603-.013-.776-.02-4.896-3.303-4.43-8.1-4.159-13.182.278-5.186-.412-10.42-.596-15.637-.04-1.116.278-2.245.975-3.727 1.557-.92 3.455-1.491 3.45-2.045-.063-7.456-.392-14.909-.525-22.669.152-.917.44-1.869.157-2.09-3.954-3.093-2.667-6.294-.044-9.438.89.16 1.492.195 2.092.23-.453-4.132-.907-8.264-1.482-12.599-.323-.455-.573-.643-.82-1.126 1.226-2.907.794-4.508-2.16-5.556-6.753-2.395-8.823-.884-9.147 6.935-.778.338-1.26.642-2.123 1.066-.79 1.794-1.461 3.455-1.562 5.148-.216 3.672.116 7.386-.245 11.037-.564 5.704-1.9 11.348-2.21 17.056-.394 7.24-.317 14.408-8.601 17.685m13.544-56.496s-.07.036 0 0"/><path fill="#D8DADB" d="M807.347 585.773c1.468 5.353 2.715 10.41 4.096 16.01-11.174 2.46-21.284 4.747-31.427 6.876-2.615.549-4.095-.71-4.02-3.57.112-4.307-.308-8.678.287-12.91.913-6.497 5.123-11.276 11.204-12.71 7.252-1.71 14.669-1.107 19.86 6.304"/><path fill="#C9CED0" d="M917.445 691.97c-.44-.474-.438-.864-.056-1.589 1.8-.991 3.198-1.706 4.649-2.287 1.076-.43 2.284-1.107 3.328-.955 8.953 1.307 16.789-.94 23.702-6.787 5.372-4.544-2.09-6.767-1.723-10.372-1.748-.178-3.604-.817-5.222-.44-3.687.86-7.227 3.088-10.879 3.214-12.91.443-25.84.248-38.764.27-11.142.018-19.44-6.919-28.707-11.597-5.709-2.882-6.905-11.54-14.42-10.937l1.673-5.543c-.17-5.883-1.033-11.535.638-17.649 2.74-10.024 9.226-16.152 17.571-20.838 8.603-4.83 17.81-8.146 27.924-7.362 1.789.14 3.48 1.533 5.052 2.565-11.338-.007-22.099 1.013-32.184 6.845-10.152 5.87-16.118 13.992-16.939 25.706-.84 11.977 5.336 20.245 14.741 26.426 10.512 6.908 22.485 9.56 34.816 10.303 12.316.742 24.521-.404 36.538-3.533 9.037-2.353 16.601 4.042 13.37 11.57-1.428 3.325-5.452 6.67-8.981 7.73-8.343 2.506-17.096 3.649-26.127 5.26"/><path fill="#D0D3D5" d="m599.047 672.942.803-13.41c1.479.61 1.479.61 2.743 10.11-.456 5.504-.068 11.18-2.09 15.803-3.163 7.237-12.332 9.41-19.746 5.2-4.416-2.509-8.4-5.944-12.158-9.419-15.264-14.114-30.342-28.43-45.551-42.603-2.305-2.149-4.845-4.083-7.447-5.869-5.256-3.61-9.51-1.996-10.969 4.346-1.153 5.009-1.807 10.134-2.625 15.217-1.101 6.842-2.147 13.693-3.521 20.653-1.854-.704-3.403-1.522-4.031-1.855.63-2.862 1.132-5.147 1.804-7.9.433-.669.627-.924.75-1.233.007-.423.014-.847.377-1.708 1.045-4.38 3.56-9.352 2.04-12.047-3.124-5.537.839-9.543 1.532-13.87.859-5.353 11.85-7.502 17.125-4.037a21 21 0 0 0 3.142 3.634l.744.073 6.071 3.464c1.418 4.628 4.858 7.442 9.732 6.687-.975 5.277 3.27 9.624 7.521 9.53 4.726 5.288 8.472 9.91 12.677 14.067 4.576 4.523 9.5 8.707 14.422 12.864 3.375 2.851 6.866 5.611 10.552 8.039 5.25 3.458 15.064-1.469 16.344-8.412.102-1.462-.066-2.388-.238-3.712-.004-1.47-.003-2.541-.003-3.612m-24.457 10.56s-.1.056 0 0"/><path fill="#C7CBCD" d="M365.015 613.023c-.93-3.231.448-7.56 2.974-6.726 4.72 1.56 5.923-3.27 9.641-3.27.368-.021.376-.008.467.136.352.047.612-.049 1.032-.374 1.627-2.58 4.248-4.9 4.313-7.289.123-4.545 1.96-4.97 5.49-4.024 1.194.32 2.419.531 3.872.844.083-1.394.14-2.358.567-3.315 1.79.342 3.214.677 4.49 1.277-1.81 1.966-3.47 3.668-5.496 5.744 2.114 4.976 7.224-.683 9.56 1.438l2.887-11.768c-1.72.385-3.765.842-6.143 1.45-2.11.05-3.887-.05-5.463-.358-.597-.735-1.397-1.261-2.49-1.917-1.102-.376-1.911-.623-2.971-.872-.42-.003-.587-.005-.639-.388 7.374-.467 14.633-.551 21.892-.636l.99 5.94-5.155 2.932c3.57 3.417 6.034 6.692 9.292 8.628 3.167 1.882 7.15 2.39 11.13 3.611l-1.291-5.033 10.746 8.114c-5.457 5.26.91 10.05 2.103 16.308-2.828-.524-5.39-.998-8.02-1.92 2.467-4.307 1.752-8.082-2.182-11.582-6.513-5.795-14.464-7.938-22.844-8.16-13.69-.364-26.631 2.13-37.537 11.92-.644-.373-.899-.58-1.215-.71m39.434-15.535s.07-.035 0 0m-37.004 11s.08-.042 0 0m60.067-2.04s.035.069 0 0"/><path fill="#D0D3D5" d="M826.066 646.653c-2.007 3.705-.283 8.508 2.037 8.613 1.326 4.394 2.559 8.479 3.763 12.989-10.338-11.16-12.65-25.086-10.282-39.63 3.89-23.881 19.515-37.486 42.162-44.364.754.786 1.007 1.247 1.26 1.708-2.59 1.45-5.18 2.899-8.228 4.669-.864.313-1.27.305-1.88.105-.81.263-1.417.717-2.386 1.193-2.702 1.743-5.041 3.462-8.186 5.774-.49 2.013-1.188 5.192-2.103 8.308-.157.534-1.197 1.012-1.9 1.15-3.575.698-3.833 1.59-1.277 4.846-2.98 4.112-3.82 8.63-3.063 13.516-1.885.21-3.268.445-4.651.682L834 628c-.358 2.107-.716 4.213-1.326 6.784-1.682-.058-3.112-.581-4.027-.916-1.094 2.494-2.238 4.887-3.127 7.37-.128.36.965 1.156 1.494 1.75-.305 1.107-.61 2.214-.948 3.665m4.75-30.654-.307 5.015 2.12-.21c-.407-1.663-.814-3.325-1.814-4.805m-7.768 21.048.405.83c.115-.078.326-.153.328-.234.025-.826.015-1.652.015-2.479l-.487-.01c-.093.45-.186.9-.261 1.893m8.464-13.6s.036.073 0 0"/><path fill="#D8DADB" d="M908.004 522.111c4.841 2.355 9.96 4.276 14.471 7.15 12.145 7.738 24.035 15.877 36.011 23.88.78.522 1.429 1.242 1.814 2.5-23.542-7.134-47.084-14.267-70.956-21.896-.33-.917-.33-1.337.001-1.753.773.006 1.215.008 1.667.228.35.398.688.578 1.364.72 1.567-.026 2.815-.146 4.024.021 4.54.63 9.068 1.352 13.6 2.289 0 .417 0 .583-.111.799-.111.048-.127.345-.127.345s.238-.394.382-.491c.048-.366-.048-.634-.093-1.252.26-.789.366-1.339.696-1.654 4.313-4.123 4.24-4.177-.788-7.328-1.002-.628-1.321-2.344-1.955-3.558"/><path fill="#D0D3D5" d="M409.432 582.987c-7.693.073-14.952.157-22.438.881-.484 1.138-.74 1.636-.996 2.133a3 3 0 0 0-.272.036c-.581 1.14-.887 2.243-1.434 4.212-.998-1.476-1.563-2.535-2.342-3.4-.81-.9-1.986-2.42-2.73-2.275-5.03.98-10.185 1.834-14.904 3.718-3.74 1.494-6.918 4.397-10.346 6.675-6.7.23-9.929 2.96-9.704 6.37-1.797 2.304-2.767 3.581-3.774 4.828-1.592 1.97-2.87 5.044-4.884 5.651-4.552 1.373-2.758 3.265-.83 5.659-5.526 1.847-6.017 5.31-4.101 9.93.366.883-.668 2.606-1.445 3.652-2.074 2.794-3.438 5.538-.601 8.86.369.083.366.08.458.237.37.05.645-.055.917-.158l-.01.01c1.506 3.19 2.337 6.257-2.072 8.737-.917.267-1.302.265-1.686.264-6.161-27.523 6.51-47.987 28.354-59.301 25.523-13.22 52.089-14.115 78.848-3.318 2.392.965 4.439 2.783 6.828 4.455-6.218 3.026-10.033-3.164-15.34-4.249-5.054-1.033-10.043-2.384-15.496-3.607M399.009 641.991c1.39.002 2.781.004 4.862.27 2.828.095 4.967-.073 7.105-.24 6.3.65 12.333-.045 17.686-3.75.946-.655 1.594-1.743 2.885-3.204l.812 3.608c2.498.249 4.9.488 7.198 1.031-.576.397-1.046.49-1.516.582l.246.645 1.71-.937c2.94.8 6.267 3.202 7.77-1.912.077-.264.504-.646.722-.618 4.912.63 6.314-3.658 7.536-6.36.184-3.834.107-7.704.636-11.49.403-2.882-4.241-10.236-7.3-10.979-.837-.203-2.215-1.509-2.139-1.648 1.856-3.389-.843-4.27-2.65-6.252-2.027-2.22-2.74-5.638-3.847-8.866 4.773 3.753 9.885 7.394 13.85 12.019 6.756 7.88 8.247 17.632 7.29 27.678-.692 7.274-6.786 12.27-15.073 12.378-15.99.207-31.985.115-48.255-.185-.027-.812.222-1.291.472-1.77"/><path fill="#DDE1E2" d="M889.014 531.988c0 .42 0 .84.01 1.575-19.955-4.146-39.909-8.653-59.89-13.035-5.16-1.131-10.406-1.87-15.886-3.041-.094-.859.085-1.465.506-2.282 3.818.308 7.4 1.266 10.969 1.213 2.972-.045 5.927-1.276 9.06-1.372 5.744-3.82 11.277-5.934 18.235-1.645 2.336 1.44 6.242.299 9.428.42 1.018.038 2.025.34 3.038.522-.388.894-.527 2.164-1.208 2.615-2.323 1.54-6.04 3.018-3.534 6.078 1.35 1.647 5.467 1.17 8.354 1.334 1.038.058 2.128-.817 3.718-1.076 1.307 1.477 2.092 2.765 2.791 3.912 1.462-1.204 2.73-2.248 3.999-3.291l.897 1.038-2.218 3.092c3.539 1.078 6.638 2.023 9.978 2.967.24 0 .718 0 .93.117.477.314.68.561.823.859M847.49 513.55s-.035-.07 0 0"/><path fill="#D0D3D5" d="m887.021 531.012-9.738-2.967 2.218-3.092-.897-1.038-3.999 3.29c-.699-1.146-1.484-2.434-2.45-3.956 1.919-1.95 3.816-4.075 6.185-5.24 1.666-.82 3.974-.335 6.036-.435.311-4.354 2.054-5.094 6.334-2.924 5.148 2.61 10.49 4.84 16.122 7.253.374.019.794.026.983.117.823 1.305 1.142 3.021 2.144 3.649 5.028 3.15 5.1 3.205.788 7.328-.33.315-.436.865-.696 1.654-4.583-.338-9.11-1.06-13.651-1.69-1.209-.167-2.457-.047-4.154-.226-.677-.423-.936-.611-1.244-.733-.442-.002-.884-.004-1.657-.01-.473-.302-.677-.55-1.173-1.09-.38-.576-.529-.809-.678-1.042zm19.53-6.5s-.07.035 0 0"/><path fill="#D8DADB" d="M865.385 585.923c-.632-.415-.885-.876-1.252-1.574 10.825-4.583 22.285-5.633 33.864-4.957 16.907.988 32.876 5.207 45.388 17.387 9.457 9.206 14.503 20.708 12.358 34.112-.611 3.818-4.03 7.188-6.605 10.637-.644-.322-.877-.456-1.137-.904.369-1.792.73-3.21 1.269-4.73.402-.264.579-.467.987-.743 1.256-1.569 3.066-3.103 3.07-4.642.015-6.666.64-13.534-3.378-19.892-5.96-.02-7.647-4.692-9.953-8.622.004.005.014.012-.047-.3-.66-2.077-1.26-3.843-1.757-5.837-1.692-.79-3.486-1.354-5.478-1.927-.198-.01-.594-.03-.783-.312-2.93-1.133-2.41-6.507-6.81-5.06a1435 1435 0 0 1-8.937-3.773 24 24 0 0 0-3.186-.71c-9.795-.582-19.599-1.704-29.382-1.545-5.967.097-11.903 2.164-18.231 3.392m79.402 16.993-.423-.941c.03.384.061.77.423.941m2.696 3.654s-.046-.085 0 0"/><path fill="#D0D3D5" d="M421.004 628.998c-.793.164-2.044.068-2.306.532-2.621 4.635-5.75 2.324-9.91-.267l4.345-.405c-2.783-4.256-13.864-.564-16.206 3.454-.14.24-.38.42-1.656 1.787l-.429-6.957c-.235.04-1.316.222-2.835.761-.693.559-.88.811-.999 1.114 0 0-.005-.02-.213.106-.48.332-.683.59-.82.902-.308.472-.616.945-.833 1.96.346 1.027.6 1.512.854 1.998-2.811 5.905 2.439 5.877 5.748 8.036.255 1.018.257 1.464.259 1.91-2.652-.019-5.35.27-7.946-.12-5.33-.8-8.274-4.527-8.057-9.641.225-5.279 3.147-8.66 8.553-9.139 9.422-.834 18.872-1.337 28.305-2.05 2.786-.21 5.553-.657 8.69-.923-1.134 2.186-2.632 4.3-4.338 6.68-.21.264-.206.262-.206.262m-33.45 11.511s-.077.039 0 0M947.993 640.998c.268.074.501.208.815.57-2.704.968-5.517 2.433-8.342 2.458-18.118.163-36.239.1-54.356-.084-7.07-.072-10.562-4.024-10.026-10.592.413-5.06 3.367-7.817 8.182-8.313 8.061-.83 16.157-1.317 24.234-1.992 3.893-.326 7.778-.752 12.064-1.15.393.427.388.87-.021 1.695-8.096 1.378-15.765 2.644-23.487 3.273-5.33.434-10.365.557-12.294 6.885-.173.567-1.677.73-2.152.918l-3.394-2.993c-.108 6.62 3.232 10.384 8.983 10.309 19.932-.26 39.863-.646 59.794-.984"/><path fill="#C9CED0" d="M630.853 602.672c.134 1.3.597 3.276-.184 4.193-5.165 6.058-9.515 12.078-9.128 20.846.338 7.662-.862 15.389-1.327 23.09-.048.789.003 2.007.482 2.338 5.583 3.854 3.739 13.546 12.145 15.349 1 .214 1.436 3.069 2.175 5.077-.468.408-.979.438-1.872.489-12.373-9.968-16.938-23.033-16.536-38.297.338-12.862 4.903-23.817 14.245-33.085"/><path fill="#DDE1E2" d="M691.983 626.99c-1.791-.24-3.582-.482-5.73-.878 2.611-.743 5.571-1.79 8.547-1.838 14.4-.234 28.803-.21 43.205-.228.74 0 1.479.459 2.604.894-1.287.814-2.953 1.96-4.633 1.98-12.68.151-25.362.081-38.93.08z"/><path fill="#D0D3D5" d="M480.05 690.644c.425-.805 1.17-1.848 1.639-1.736 8.577 2.062 8.947 1.87 10.374-6.137 4.502-.742 1.204-6.707 5.527-7.773 1.03 8.63-2.668 15.731-9.314 17.162-2.476.534-5.344-.758-8.226-1.516"/><path fill="#D8DADB" d="M326.22 649.385c.402-.377.787-.375 1.459-.373.604.469.92.937 1.349 2.036 1.314 2.072 2.874 3.345 3.645 4.988 1.61 3.433 2.786 7.068 4.175 10.606.7 1.78 1.475 3.53 2.216 5.294 0 0-.014.01-.01.012-7.11-5.755-10.356-13.752-12.834-22.563"/><path fill="#C9CED0" d="M644.548 591.714c1.314 6.174-5.58 6.092-7.896 9.802-.57.914-2.908.724-4.802.814 3.876-3.646 8.12-7.064 12.698-10.616"/><path fill="#D8DADB" d="M792.377 513.99c1.712-.45 3.795-.772 6.253-.715.378.809.382 1.24.386 1.672-2.09-.276-4.18-.553-6.64-.958"/><path fill="#DDE1E2" d="M805.38 516.05c1.77-3.518 3.681-2.585 5.557.54-1.694.098-3.447-.164-5.558-.54"/><path fill="#D0D3D5" d="M603.167 656.617c-3.54-1.696-2.941-4.04-.256-6.54.358 2.03.371 4.098.256 6.54"/><path fill="#D8DADB" d="M667.667 606.117c.32.27.317.7.307 1.448-1.734 1.37-3.46 2.417-5.518 3.557-.944-4.042 3.223-3.124 5.211-5.005"/><path fill="#DDE1E2" d="M758.052 626.002c-1.78.04-3.816-.093-5.94-.573 1.836-.097 3.759.151 5.94.573"/><path fill="#D8DADB" d="M396.338 644.009c-.337-.526-.339-.972-.33-1.754a5 5 0 0 1 2.944-.541c-.193.756-.442 1.235-.806 1.958-.568.302-1.02.36-1.808.337"/><path fill="#DDE1E2" d="M799.333 515.075c-.321-.56-.325-.991-.328-1.746 1.269.386 2.538 1.096 3.893 2.11-1.025.124-2.136-.056-3.565-.364"/><path fill="#D8DADB" d="M787.331 513.07c1.163-2.647 2.306-1.876 3.475.423-.961.09-2.071-.075-3.475-.423"/><path fill="#C7CBCD" d="M593.76 457.922c-.612.278-1.456.449-2.508.42.62-.31 1.447-.419 2.508-.42"/><path fill="#B7BABC" d="M903.372 693.169c.587-.372 1.541-.623 2.565-.557-.686.437-1.442.557-2.565.557"/><path fill="#C7CBCD" d="M572.52 459.762c-.428.22-1.093.32-2.004.359.425-.2 1.096-.34 2.005-.359"/><path fill="#D8DADB" d="M365.015 613.394c.316-.24.57-.034.894.46-.034.521-.2.831-.602 1.269-.255-.368-.274-.863-.292-1.729"/><path fill="#C2C6C9" d="M702.194 505.126c.283-.148.754-.167 1.574-.131-.229.123-.807.191-1.574.13"/><path fill="#DDE1E2" d="M599.57 457.228c-.014.217-.322.363-.758.289.069-.268.266-.314.757-.29"/><path fill="#C7CBCD" d="M575.745 459.263c.248.1-.075.431-.075.431s-.46-.025-.554-.156c.065-.213.223-.294.63-.275"/><path fill="#DDE1E2" d="M390.9 513.21c.068.67-.39 1.03-1.294 1.425-.041-.554.363-1.146 1.294-1.426M389.147 514.24c-.154.094-.383.175-.411.086.2-.172.335-.099.41-.086M392.87 512.172c.09.662-.36 1.038-1.256 1.468-.06-.549.328-1.152 1.255-1.468"/><path fill="#C9CED0" d="m672.998 672.998-6.513 9.325c4.066.545 7.983 1.003 11.873 1.624 1.505.24 2.95.852 4.423 1.294-1.098 1.528-2.234 4.378-3.286 4.348-3.81-.111-7.607-1.125-11.376-1.951-.843-.185-1.807-1.608-2.28-1.412-4.824 2-6.468-1.362-7.58-3.902-2.679.253-5.105 1.242-6.709.486-4.147-1.955-2.465-5.74-2.131-9.682l4.133 3.797c.823-4.759 1.47-8.498 2.634-12.578 1.623-.678 2.726-1.016 3.83-1.354 2.436 2.125 4.832 4.298 7.324 6.356 1.57 1.298 3.284 2.423 5.297 3.638.363.013.36.01.36.01"/><path fill="#D0D3D5" d="M691.972 627.343c1.404-.35 2.796-.346 4.606-.34.524 5.213 5.292 3.196 8.15 4.717-1.25 3.188-6.961 7.562 3.954 7.796l-2.255 1.48h-15.881l-.505-10.704a35 35 0 0 0 1.93-2.95"/><path fill="#B7BABC" d="M659.973 662.731c-1.06.6-2.164.938-3.634 1.293-.33-1.116-.294-2.25-.258-3.383 1.283.61 2.567 1.219 3.892 2.09"/><path fill="#C9CED0" d="M700.747 689.025c-.312.255-.895.502-1.477.749l-.137-.467c.448-.097.896-.193 1.614-.282"/><path fill="#B7BABC" d="M649.627 667.799c.036.031-.035-.032 0 0"/><path fill="#C9CED0" d="M646.473 679.517c-.019-.037.018.037 0 0M673.001 673.001c.001.001.238-.393.238-.393s-.018.295-.13.342c-.111.048-.109.05-.108.051"/><path fill="#B7BABC" d="M645.465 677.45c.05-.03-.05.028 0 0"/><path fill="#D0D3D5" d="M685.516 634.527c-.036.019.037-.018 0 0"/><path fill="#BCC1C3" d="M522.173 633.77c-.204.257-.7.209-.944-.19a93 93 0 0 0-3.168-3.585c-5.252-3.14-16.244-.99-17.103 4.362-.693 4.327-4.656 8.333-1.532 13.87 1.52 2.695-.995 7.667-2.038 11.73-1.821-2.446-3.043-5.21-4.876-7.48-.733-.908-2.813-.728-4.582-1.107l.846 5.957-1.966.644c-2.614-6.743-6.661-13.316-7.489-20.272-1.098-9.23.26-18.76.69-28.155.13-2.857.463-5.75 1.167-8.508.236-.925 1.907-1.484 3.206-2.412l-2.33-3.298.481-1.076c1.975.545 3.95 1.09 6.51 1.794-.287-1.24-.187-2.99-.88-3.4-1.903-1.128-4.712-2.09-2.282-4.447 1.694-1.643 5.354-3.096 7.227-2.35 4.308 1.714 8.052 4.838 12.044 7.358 1.68 1.06 3.407 2.044 5.687 3.405l-3.476 2.619c2.903-.197 4.98-.337 7.467-.145.614.593.87.785 1.18.907 0 0-.01.008-.003 0 1.58 3.934-.238 5.905-3.763 7.533-1.72.794-2.834 2.904-4.546 4.772l-3.141-1.781c-1.436 4.213-3.008 8.87 1.334 11.224 2.729 1.479 6.91 5.937 10.601.41-4.381-3.372-4.406-3.587-.766-5.916l7.779 14.78 2.751 1.408c-1.294.365-2.588.73-4.085 1.35m-12.726-8.283s.07-.035 0 0m-7.958-5.936s-.036-.072 0 0"/><path fill="#ADB0B1" d="M597.028 615.968c.262 7.454.59 14.907.654 22.363.005.554-1.893 1.124-3.293 1.696-1.042-3.816-1.698-7.641-2.354-11.467l-1.98-.21c-.64 3.142-1.392 6.265-1.892 9.429-.55 3.491.39 8.256-1.572 10.257-3.396 3.463-8.47 5.337-12.98 7.605-.98.493-2.54-.163-4.221-.327.807-3.464-7.447-7.868 1.524-10.95 8.382-3.63 8.305-10.799 8.699-18.039.31-5.708 1.646-11.352 2.21-17.056.361-3.65.029-7.365.245-11.037.1-1.693.771-3.354 1.57-4.749 2.472 7.327 3.956 14.317 2.556 21.845-.885 4.76 1.655 6.2 7.38 4.95-1.076-3.141.045-4.7 3.454-4.31m-17.538 33.587s-.038-.074 0 0"/><path fill="#BCC1C3" d="M599.055 676.953c.167.925.335 1.85.24 2.93-.277-.308-.292-.771-.297-1.831.025-.765.041-.932.057-1.099"/><path fill="#ADB0B1" d="M599.05 676.554c-.01.566-.027.733-.059 1.151-.341-1.166-.666-2.584-.985-4.392.179-.384.35-.377.782-.37.259 1.07.258 2.14.262 3.61"/><path fill="#C7CBCD" d="M521.003 607.997q-.52-.268-1.045-.53c.266.061.532.123.919.361.12.177.123.172.126.17"/><path fill="#B3B9BB" d="M692.96 461.974c.737-.314 1.489-.929 2.209-.894 5.316.255 10.641.498 15.924 1.093 1.2.135 2.248 1.633 2.367 1.725 5.113.39 9.323.824 13.543 1.006 6.48.278 12.529 4.245 19.61 2.175 1.133.282 1.92.6 2.996 1.28-.04 1.68-1.001 3.883-.595 4.174 4.18 2.99.23 4.087-.632 5.715-1.423-1.139-3.105-3.035-3.573-2.772-3.396 1.911-7.09 3.776-9.61 6.614-2.145 2.415-3.456 3.58-6.457 1.765-3.888-2.352-7.349.062-9.843 2.346-2.307 2.112-4.126 2.945-6.948 1.685-.05-.112-.351-.125-.351-.125s.4.24.442.58c.175.816.579 1.523.401 1.728-2.103 2.438-4.149 4.966-6.563 7.065-.583.506-2.487-.791-3.732-.68-1.084.096-2.095 1.009-3.139 1.561-5.104.197-10.213.32-15.312.611-5.058.289-10.105.764-15.16 1.121-1.92.136-3.85.169-6.247-.104-2.892-1.531-5.441-4.015-7.311.328 0 0-.481 0-.807-.34a573 573 0 0 1-4.366-5.12l-8.144 2.498 4.094-7.019 6.864 2.383.444-1.294c-1.205-.508-2.78-.715-3.512-1.61-.74-.906-1.312-2.957-.796-3.697 1.682-2.415 3.894-4.462 5.86-6.603l2.566 4.527c1.156-3.315 2.491-5.453 2.534-7.616.094-4.687 2.459-8.217 7-9.054 4.42-.814 8.891-1.38 13.274-2.353 2.736-.608 5.35-1.77 8.018-2.683 0 0-.008.01.152.293 1.99 2.305 3.545 2.173 4.8-.309m-22.431 6.855-1.029.198c.341.077.682.154 1.029-.198m-9.083 4.659s.073-.037 0 0m68.111 7.024s-.076.04 0 0m7.002-4s-.078.04 0 0"/><path fill="#BCC1C3" d="M687.945 461.673c-2.606 1.23-5.219 2.392-7.955 3-4.383.974-8.855 1.539-13.275 2.353-4.54.837-6.905 4.367-6.999 9.054-.043 2.163-1.378 4.301-2.534 7.616l-2.566-4.527c-1.966 2.141-4.178 4.188-5.86 6.603-.516.74.056 2.791.796 3.697.733.895 2.307 1.102 3.512 1.61l-.444 1.294-6.864-2.383-4.094 7.019 8.144-2.499c1.219 1.442 2.63 3.111 4.126 5.123-6.226-.232-12.535-.826-18.85-1.358-.961-.08-1.99-.033-2.913.222-4.33 1.196-4.32 1.23-7.3-2.008-.332 3.08-.886 4.032-4.459 2.382-3.332-1.54-7.64-.968-12.731-1.437l2.56-11.496-1.492-.578-4.098 4.697c0-2.966-.478-4.84.152-6.2.501-1.082 2.29-1.708 3.625-2.237 4.517-1.791 9.087-3.45 14.147-5.35l4.4 3.734 10.393-12.739 8.387 4.376c.927-2.071 1.84-4.111 3-6.397.414-.244.58-.244 1.18-.014.98.408 1.526.586 2.072.764 3.157-.535 6.31-1.095 9.472-1.597 2.513-.4 5.037-.73 8.813-1.27 3.34-3.649 10.16-4.73 17.655-1.454"/><path fill="#C9CED0" d="M822.694 488.939c-2.343 5.846-8.164 7.508-13.025 6.553-4.735-.932-6.626 2.616-10.053 3.379-2.461.548-4.415 3.113-6.76 4.502-4.215 2.498-7.66 6.35-13.7 5.006-5.54-1.232-11.412-.979-17.14-1.363-1.388-.093-2.818.056-4.163-.224-1.287-.267-3.457-.806-3.556-1.473-.397-2.694-1.344-4.6-4.262-4.431-3.949.229-7.898.667-11.808 1.266-2.863.438-5.665 1.28-8.86 1.895.37-5.787 5.29-5.037 9.022-6.013 2.747-.718 5.57-1.145 9.187-1.866 5.855 4.132 21.005 1.287 24.714-5.502 7.74 3.69 7.792-6.342 13.279-6.674l-.086-1.299-5.461-1.852c0-1.154 0-2.62.02-4.495.435-.4.849-.39 1.842-.367.757.015.935.017 1.114.019 6.552 2.043 13.04 5.358 19.678 5.685 4.452.22 7.505 3.968 12.31 2.878 2.023-.458 4.88 2.77 7.708 4.376m-29.13-8.426s-.08.042 0 0"/><path fill="#BCC1C3" d="M712 487.999c2.773 1.147 4.592.314 6.899-1.798 2.494-2.284 5.955-4.698 9.843-2.346 3.001 1.815 4.312.65 6.456-1.765 2.52-2.838 6.215-4.703 9.611-6.614.468-.263 2.15 1.633 3.573 2.772.863-1.628 4.812-2.725.632-5.715-.406-.29.556-2.495.925-4.148 7.863 1.549 15.685 3.435 23.794 5.448-.828.424-1.948.986-3.056.964-2.483-.05-4.96-.39-7.84-.646 1.883 6.206 1.883 6.206-4.169 11.813l-13.494.615c-2.238 5.983-5.948 8.051-12.434 7.67-1.634-.096-3.351 1.226-4.852 2.735-3.412-.692-7.487-5.214-9.534 2.655-5.225 0-10.307.073-15.384-.056-1.156-.029-2.294-.755-3.7-1.364.783-.756 1.794-1.669 2.878-1.766 1.245-.11 3.15 1.187 3.732.68 2.414-2.098 4.46-4.626 6.563-7.064.178-.205-.226-.912-.401-1.728zm41.47-11.83q.515-.097 1.029-.197c-.34-.077-.681-.154-1.028.198M655.316 500.127c1.533-4.499 4.082-2.015 6.596-.485-2.024.448-4.141.544-6.596.485"/><path fill="#C9CED0" d="m724 501.005 2.043-.216c-.504.66-1.008 1.319-1.777 1.763-.265-.66-.266-1.104-.266-1.547"/><path fill="#BCC1C3" d="M722.01 497.707c-.043 0 .044 0 0 0"/><path fill="#D0D3D5" d="M723.772 501.187c.228.261.229.705.23 1.481-.167.333-.335.332-.755.33-.252-.002-.247.002-.245.004.182-.543.362-1.087.77-1.815"/><path fill="#BCC1C3" d="m768 476.001-1.045-.543c.268.062.536.123.925.364.12.178.12.18.12.18M602.482 493.471c.036-.018-.036.019 0 0M768 476l.393.235s-.294-.013-.344-.124z"/><path fill="#C7CBCD" d="M638.525 461.485c.016.033-.015-.032 0 0M624.47 466.517c-.018-.036.019.037 0 0"/><path fill="#BCC1C3" d="M631.527 467.484c.018.035-.017-.036 0 0"/><path fill="#C7CBCD" d="M670.64 593.03c2.332 1.38 3.74 1.277 4.701-1.266 1.447-3.828 3.284-4.866 6.023-2.351 1.07-2.16 2.274-5.816 2.934-5.72 4.248.614 9.175-3.181 12.208.984 7.21-3.558 14.021-1.618 21.012.861l-11.12 2.478-.438 1.203c6.071.31 6.962 4.085 6.76 8.6-6.467 2.918-14.6.665-15.328-3.227-2.733-.156-5.292-.839-7.546-.284-2.418.595-4.702 2.148-6.755 3.673-1.536 1.141-2.613 2.9-3.93 4.426l-4.733-4.53-.934.697 2.001 6.57c-2.16-1.307-3.165-1.915-4.323-2.799-1.685-1.193-3.217-2.11-4.749-3.028l-.754 1.13V593.6c1.111-.142 2.847-.364 4.97-.57m17.708-4.363-3.923.437.578 1.902c1.137-.566 2.274-1.132 3.345-2.339"/><path fill="#C7CBCD" d="M670.038 589.314c.86-.636 1.75-.95 3.5-1.567-.79 1.76-1.317 2.935-2.169 4.188-.65-.714-.976-1.507-1.331-2.621M668.325 588.986c-.013-.495.311-.98.635-1.463.316.3.633.602.997 1.186-.4.284-.848.286-1.632.277"/><path fill="#D0D3D5" d="M648.496 593.5c.017-.003-.017.002 0 0"/><path fill="#C9CED0" d="M339.474 671.966c-1.151-1.794-1.927-3.544-2.626-5.324-1.39-3.538-2.565-7.173-4.175-10.606-.771-1.643-2.33-2.916-3.6-4.698 4.581-.375 9.247-.657 13.876-.36 3.499.224 6.478-2.753 5.837-6.023-.45-2.29-.087-4.737-.087-8.332 2.56 1.63 3.722 2.37 5.103 3.261 1.352 4.853 3.303 9.008 6.603 12.746 2.094 2.372 3.016 5.78 4.433 9.095-.03.373-.052.62-.052.62l.217-.34c4.574-.987 7.59 1.977 10.932 4.64.066.354.042.38.042.38l-15.102 9.13c-.04.363-.173 1.55-.59 2.79-.285.055-.281.059-.281.059-.9-.316-2.085-1.169-2.659-.866-6.063 3.2-8.865-1.655-12.568-4.682-1.216-.995-3.24-1.001-5.303-1.49m14.037 5.47s.046.085 0 0M443.703 673.203c2.989 1.44 5.632 2.958 8.21 4.438-3.116 7.171-7.036 9.636-14.263 9.373-1.798-.066-3.726-.327-5.384.184-6.646 2.046-6.615 2.145-9.182-4.883l3.835-3.026-3.241-4.474c6.78-2.285 13.17-2.502 20.025-1.612m1.763 8.292s.05-.021 0 0M354.994 633.662c-1.11.813-2.223 1.286-3.336 1.76l-.876-1.241c1.186-.75 2.372-1.501 3.863-2.237.318.469.333.923.349 1.718M419.057 675.793c-1.337.366-2.65.434-3.962.502l.042-1.327c1.315.176 2.63.352 3.92.825M382.737 673.23c-.242.58-.546.888-.85 1.196l-.637-1.144c.475-.108.95-.216 1.487-.053M376.013 666.987c.847.194 1.68.4 2.515.607l-.389 1.125c-.675-.355-1.35-.711-2.094-1.38-.068-.314-.044-.34-.032-.352M421.226 689.472c-.647.095-1.095-.003-1.544-.101l.512-1.1c.41.336.82.672 1.032 1.2M372.828 671.82c.323.548.404 1.049.484 1.55-.265-.02-.76-.028-.761-.061-.026-.51.012-1.024.277-1.489"/><path fill="#C9CED0" d="M359.998 678.998q-.435.722-.865 1.45l-.588-.499c.307-.288.615-.575 1.19-.904.269-.041.265-.045.263-.047M423.528 689.476c.018.036-.019-.036 0 0M411.521 675.536c-.04.02.04-.021 0 0M376.517 674.527c-.036.018.036-.018 0 0M451.464 670.523c-.02-.038.02.038 0 0"/><path fill="#D8DADB" d="M410.542 642.014c-1.704.174-3.843.342-6.253.255 1.757-.258 3.788-.26 6.253-.255"/><path fill="#D0D3D5" d="M417.948 640.251c-.634-.436-1.016-.844-1.397-1.251l1.074-.434c.193.571.385 1.142.323 1.685"/><path fill="#D8DADB" d="M390.243 633.854c-.5-.357-.755-.842-1.124-1.577.38.317.876.882 1.124 1.577"/><path fill="#D0D3D5" d="M420.998 629.001c.214.234.449.453.631.709.043.06-.09.245-.142.372-.152-.217-.304-.435-.47-.868-.013-.216-.017-.214-.019-.213"/><path fill="#D8DADB" d="M390.141 630.144c-.029-.43.175-.689.664-1.015-.021.298-.26.717-.664 1.015"/><path fill="#D0D3D5" d="M431.48 633.469c.037-.02-.039.019 0 0M430.481 631.474c.036-.018-.035.018 0 0M401.51 631.517c-.027.01.026-.011 0 0"/><path fill="#D8DADB" d="M391.218 628.903q-.135-.282.555-.763.144.285-.555.763"/><path fill="#B7BABC" d="M850.722 644.962c-.24 1.79-.785 3.595-1.369 5.528 7.515-.603 8.711 8.055 14.42 10.937 9.267 4.678 17.565 11.615 28.707 11.597 12.923-.022 25.855.173 38.764-.27 3.652-.126 7.192-2.355 10.879-3.214 1.618-.377 3.474.262 5.222.44-.367 3.605 7.095 5.828 1.723 10.372-6.913 5.846-14.749 8.094-23.702 6.787-1.044-.152-2.252.525-3.328.955-1.451.58-2.85 1.296-4.647 1.994-2.632-.585-4.908-1.812-7.138-1.734-9.436.332-18.864 1.529-28.283 1.419-4.32-.051-8.615-2.39-12.82-4.755l10.068.623.101-.79c-4.814-.95-9.647-1.814-14.422-2.933-.789-.185-1.318-1.48-1.558-2.596a69 69 0 0 1 3.339-2.033l-.92-1.004-2.752 2.722c-3.803-.181-7.607-.363-11.708-.276l-.293.264c-3.627 1.459-3.46-1.198-3.416-3.352-8.72-1.828-9.204-2.271-10.015-9.293 3.405.403 7.185-3.659 9.994 1.836l1.429-.9-6.575-18.214c.993-.78 2.43-1.908 4.223-3.044 1.495-.355 2.633-.703 4.077-1.066m1.21 29.07 4.58-.267-.231-1.38c-1.455.357-2.91.713-4.35 1.648m-2.446 3.545s-.054-.096 0 0m7.002-2.018s-.041-.077 0 0M948 640.624c-19.938.712-39.869 1.098-59.801 1.358-5.751.075-9.091-3.69-8.983-10.309l3.394 2.993c.475-.188 1.979-.35 2.152-.918 1.929-6.328 6.965-6.451 12.294-6.885 7.722-.629 15.391-1.895 23.472-2.941 5.704.081 9.26-4.901 6.626-9.524-2.139-3.756-5.355-6.893-8.058-10.334-.779-.991-1.522-2.032-2.124-3.136-1.777-3.26-4.883-3.553-7.263-.629-1.646-5.725-1.646-5.725.872-7.414l-2.73-4.063c6.055 0 11.328 0 16.936-.131 4.735-1.579 4.214 3.795 6.975 5.258-1.29 2.547-2.598 4.482-4.089 6.685.944 2.389 1.351 6.091 3.417 7.952 2.425 2.183 6.21 3.43 9.557 3.844 3.022.373 6.25-.927 9.388-1.489 3.931 6.034 3.307 12.902 3.291 19.568-.003 1.539-1.813 3.073-3.268 4.712-.727.262-.89.487-.966.775-.361 1.418-.722 2.836-1.091 4.628M918.206 596.9l.02-.271s-.224.372-.442.47l-.017.289s.232-.39.44-.488m29.284 17.655s-.039-.075 0 0"/><path fill="#C7CBCD" d="M855.102 590.935c.406.008.812.016 1.521.026 3.967 3.535 2.85 5.908-1.585 8.368-4.903 2.721-10.28 5.885-10.081 12.967.021.753-.356 1.519-.75 3.075-1.789-1.28-3.137-2.244-4.823-3.283-2.894-3.33-2.636-4.222.939-4.92.703-.138 1.743-.616 1.9-1.15.915-3.116 1.612-6.295 2.103-8.308 3.145-2.312 5.484-4.031 8.51-5.775 1.212-.349 1.739-.674 2.266-1m-2.592 3.512s.036.07 0 0M827.151 642.726c-.666-.332-1.76-1.128-1.631-1.487.89-2.484 2.033-4.877 3.127-7.371.915.335 2.345.858 4.069 1.257-1.613 2.364-3.52 4.851-5.565 7.6M845.06 619.183c1.184-.82 2.333-1.256 3.481-1.693.387 1.13 1.227 2.355 1.014 3.357-.163.771-1.651 1.261-2.55 1.876-.66-1.052-1.32-2.104-1.945-3.54M840.031 622.692c.394-1.302.806-2.257 1.217-3.213.738.617 1.86 1.115 2.099 1.886.215.695-.322 1.968-.944 2.447-.367.283-1.541-.481-2.372-1.12M834.167 627.77c-1.056-.366-1.946-.962-2.835-1.558 1.383-.237 2.766-.473 4.408-.452-.296.764-.85 1.272-1.573 2.01"/><path fill="#B7BABC" d="M913.007 584.397c.848-.18 1.705-.037 2.801.333-.434.76-1.107 1.291-1.78 1.823-.337-.611-.675-1.222-1.021-2.156"/><path fill="#C7CBCD" d="M844.566 626.985c.57-.32 1.135-.365 1.7-.411l-.015.87c-.563-.062-1.126-.124-1.685-.46"/><path fill="#D0D3D5" d="M831.7 645.047q-.222.865-1.386 1.897.224-.866 1.386-1.897M827.758 646.99c-.017.1-.3.197-.688.148.07-.149.247-.15.688-.149M491.242 679.721c.088.276-.006.577-.1.878-.027-.284-.054-.569.1-.878"/><path fill="#BCC1C3" d="M492.479 654.469c.038-.02-.038.02 0 0M496.802 662.106q.127.279-.586.76-.116-.273.586-.76"/><path fill="#B7BABC" d="M515.892 599.78q-.284.133-.774-.573.28-.132.774.572"/><path fill="#C9CED0" d="M827.978 490.704c-.775.066-1.583-.19-2.685-.574-.296-.3-.298-.47-.312-.897.98.213 1.972.682 2.997 1.47"/><path fill="#D0D3D5" d="M843.986 498.276c.395.425.538.944.682 1.463l-1.251.325c.105-.565.211-1.129.569-1.788"/><path fill="#C2C6C9" d="M782.896 475.85c-.077.148-.255.146-.701.138.021-.1.31-.194.701-.137M354.3 595.124c3.098-2.435 6.275-5.338 10.016-6.832 4.72-1.884 9.875-2.738 14.904-3.718.744-.145 1.92 1.375 2.73 2.274.78.866 1.344 1.925 2.342 3.401.547-1.97.853-3.071 1.637-3.957 1.676.714 2.874 1.21 4.195 1.914.33.465.584.656 1.221.783l1.657.009-.198 3.322c-1.453-.313-2.678-.524-3.873-.844-3.529-.946-5.366-.521-5.49 4.024-.064 2.39-2.685 4.709-4.552 7.285-.4.226-.883.234-.883.234s-.008-.013-.017-.015a1987 1987 0 0 1-2.803-6.553l-7.538 1.537c-5.064-1.053-9.04-1.88-13.347-2.864m15.94-1.992c.139.437.253.886.453 1.292.022.044.544-.158.833-.246-.31-.463-.619-.926-1.286-1.046"/><path fill="#D0D3D5" d="M329 640.001c.27-.094.537-.19.9-.14.096.145.102.138-.147.133-.419-.002-.588.001-.756.004z"/><path fill="#C7CBCD" d="M721.52 584.533c-.039.02.038-.02 0 0"/><path fill="#C9CED0" d="M746.19 504.584c.14-.841.361-1.383.583-1.925l1.101 1.198c-.534.342-1.068.685-1.684.727M824.775 490.112c-.058.413-.341.937-.625 1.462l-.403-.236a8.4 8.4 0 0 1 1.028-1.226M792.47 506.518c-.019-.037.019.037 0 0"/><path fill="#D8DADB" d="M832.484 500.47c.036-.017-.036.019 0 0"/><path fill="#C2C6C9" d="M594.082 468.615c.215-1.249.67-2.303 1.126-3.358l1.737.996c-.875.852-1.749 1.704-2.863 2.362"/><path fill="#BCC1C3" d="M692.66 461.837c-.955 2.62-2.51 2.751-4.497.44 1.294-.385 2.746-.481 4.497-.44"/><path fill="#C2C6C9" d="M602.477 463.957c.342-.137.68-.06 1.02.017-.342.065-.682.13-1.02-.017M651.964 465.716c-.505.1-1.05-.078-1.78-.485.457-.082 1.098.062 1.78.485"/><path fill="#BCC1C3" d="M660.472 458.524c-.018-.035.018.035 0 0"/><path fill="#C2C6C9" d="M594.484 470.473c.034-.017-.035.017 0 0"/><path fill="#D0D3D5" d="M833.958 661.523c-.137-.343-.06-.684.017-1.024.066.342.132.685-.017 1.024"/><path fill="#B7BABC" d="M845.462 676.524c-.025-.045.024.045 0 0M850.998 679.002c.1.272.203.543.154.906-.152.092-.162.085-.162.085s.002-.5.008-.748c.007-.25.002-.245 0-.243M851.004 680.005c.003.005-.248.4-.248.4s.009-.312.122-.362c.112-.05.122-.043.126-.038M834.521 666.54c-.045.024.045-.025 0 0"/><path fill="#DDE1E2" d="M569.364 466.558c-.44.5-1.025.757-1.61 1.014q-.255-.63-.508-1.258c.657 0 1.314 0 2.118.244M560.59 487.34c.102-.393.353-.63.603-.868.099.103.288.292.282.299-.235.251-.488.486-.886.568"/><path fill="#B7BABC" d="M597.157 615.662c-3.538-.085-4.659 1.475-3.584 4.617-5.724 1.249-8.264-.19-7.38-4.951 1.4-7.528-.083-14.518-2.176-21.964.475-.704.958-1.008 2.065-1.413 2.962-1.91 5.3-3.718 7.37-5.32l3.555 4.369c.3.122.55.31.806 1.097-.589 1.626-1.777 2.72-1.768 3.806.021 2.705.588 5.406.935 8.108-2.333 3.267-3.62 6.468.334 9.56.283.222-.005 1.174-.157 2.091"/><path fill="#ADB0B1" d="M597.06 590.639c-1.09-.915-2.129-2.19-3.607-4.007-2.071 1.601-4.41 3.41-7.077 5.286-.299-7.72 1.771-9.23 8.524-6.835 2.954 1.048 3.386 2.649 2.16 5.556M597.27 604.134c-.637-2.825-1.204-5.526-1.225-8.231-.01-1.085 1.18-2.18 1.89-3.603.52 3.8.974 7.932 1.427 12.064-.6-.035-1.201-.07-2.092-.23"/><path fill="#B7BABC" d="M584.52 587.532c-.035.018.036-.018 0 0M518.083 630.32c.953.737 1.928 1.799 2.899 3.235-.962-.72-1.92-1.815-2.899-3.235M574.54 683.53c-.05.028.05-.028 0 0"/><path fill="#C2C6C9" d="m399.002 586.995 5.81-1.299-2.887 11.768c-2.336-2.121-7.446 3.538-9.56-1.438a395 395 0 0 0 5.742-5.967c.561-1.347.728-2.205.895-3.064m3.309.859.39.222c-.056-.119-.112-.237-.39-.222"/><path fill="#D0D3D5" d="M398.67 587.146c.165.708-.002 1.566-.415 2.648-1.67-.112-3.093-.447-4.884-.79-.81-.008-1.253-.01-2.149-.223-.66-.468-.916-.658-1.222-.781-1.197-.497-2.395-.994-3.795-1.747-.204-.255-.205-.253.107-.305.769-.684 1.227-1.316 1.684-1.948.809.248 1.618.495 2.774 1.183.976.898 1.605 1.355 2.234 1.812 1.778.1 3.555.2 5.665.15"/><path fill="#C2C6C9" d="M393.206 586.788c-.83-.25-1.46-.707-2.142-1.476.745.215 1.545.741 2.142 1.476M387.745 583.999c-.206.633-.664 1.265-1.435 1.95-.056-.445.2-.943.569-1.699.28-.256.447-.254.866-.251M404.484 597.47c.035-.017-.035.018 0 0"/><path fill="#BCC1C3" d="M367.484 608.467c.04-.021-.04.02 0 0"/><path fill="#C2C6C9" d="M427.53 606.482c.017.035-.018-.035 0 0"/><path fill="#BCC1C3" d="M378.097 603.163c-.09-.144.391-.152.632-.149-.02.1-.28.196-.632.149"/><path fill="#C7CBCD" d="M831.112 615.908c.703 1.571 1.11 3.233 1.517 4.896l-2.12.21c.102-1.671.204-3.343.603-5.106M823.038 636.776c.084-.722.177-1.172.27-1.623l.487.011c0 .827.01 1.653-.015 2.479-.002.08-.213.156-.328.233a5 5 0 0 1-.414-1.1"/><path fill="#C2C6C9" d="M854.899 590.743c-.324.518-.851.843-1.702 1.17.284-.453.891-.907 1.702-1.17"/><path fill="#C7CBCD" d="M831.53 623.483c.017.037-.02-.036 0 0"/><path fill="#DDE1E2" d="M891.012 532.22c.298-.096.557.092.897.553-.209.025-.548-.155-.897-.553"/><path fill="#D0D3D5" d="M909.889 536.049c.111-.049-.127.345-.127.345s.016-.297.127-.345M910.144 535.903c-.144-.07-.145-.236-.144-.653.096.019.192.287.144.653"/><path fill="#BCC1C3" d="M329.09 640.154c.075-.159.244-.162.667-.163-.023.108-.299.213-.668.163"/><path fill="#C2C6C9" d="M439.999 639.998q-.858.466-1.712.935l-.246-.645c.47-.092.94-.185 1.687-.28.277-.003.272-.008.27-.01"/><path fill="#D8DADB" d="M887.26 531.012c-.081-.384.077-.768.234-1.152.15.233.298.466.466.926.019.226-.46.227-.7.226M847.472 513.516c-.017-.035.018.035 0 0M906.516 524.53c-.036.017.035-.018 0 0"/><path fill="#C2C6C9" d="M949.95 610.617c-3.053.886-6.281 2.186-9.303 1.813-3.348-.413-7.132-1.661-9.557-3.844-2.066-1.86-2.473-5.563-3.417-7.952 1.49-2.203 2.8-4.138 4.278-6.403.169-.33.565-.31.998-.028 2.003.816 3.572 1.35 5.141 1.883.6 1.766 1.2 3.532 1.747 5.655-.052.356-.076.644-.076.644l.232-.395c2.309 3.935 3.996 8.608 9.956 8.627m-12.393-9.105s-.071.035 0 0"/><path fill="#B7BABC" d="M938.192 595.858c-1.67-.305-3.24-.84-5.045-1.645 1.559.291 3.353.854 5.045 1.645"/><path fill="#C2C6C9" d="M944.621 603.022c-.196-.278-.226-.663-.257-1.047.141.314.282.627.257 1.047"/><path fill="#D0D3D5" d="M949.27 635.895c-.102-.187.061-.412.51-.642.069.174-.108.377-.51.642"/><path fill="#C2C6C9" d="M947.46 606.528c-.023-.043.023.042 0 0M387.516 640.529c-.04.019.038-.02 0 0"/><path fill="#B7BABC" d="M509.482 625.47c.035-.017-.035.018 0 0M501.47 619.516c-.017-.036.019.036 0 0M579.471 649.518c-.019-.037.019.037 0 0"/><path fill="#BCC1C3" d="M670.526 469.044c-.344.137-.685.06-1.026-.017.343-.066.686-.132 1.026.017M661.482 473.47c.037-.02-.036.018 0 0M712 488l-.4-.24s.301.014.35.126zM729.52 480.531c-.039.02.037-.02 0 0M736.52 476.532c-.039.02.039-.02 0 0"/><path fill="#D8DADB" d="M793.523 480.534c-.04.02.04-.021 0 0"/><path fill="#B3B9BB" d="M753.474 475.955c.344-.137.684-.06 1.025.017-.343.066-.685.132-1.025-.017"/><path fill="#D0D3D5" d="M688.38 588.987c-1.104.886-2.241 1.452-3.378 2.018l-.578-1.902c1.307-.146 2.615-.291 3.956-.116"/><path fill="#D8DADB" d="M353.534 677.479c.023.042-.023-.043 0 0M365.001 662.002c.002.002-.215.343-.215.343s.022-.247.116-.297.098-.048.1-.046M445.491 681.484c.025-.01-.025.01 0 0"/><path fill="#C7CBCD" d="M863.003 679.004q1.38-1.357 2.755-2.72l.92 1.005c-.977.566-1.953 1.132-3.308 1.7-.377.004-.37.011-.367.015M851.923 673.743c1.448-.645 2.903-1.001 4.358-1.357l.23 1.38c-1.526.088-3.053.177-4.588-.023M849.458 677.53c-.027-.048.027.048 0 0M856.467 675.521c-.021-.038.02.04 0 0"/><path fill="#C2C6C9" d="M947.472 614.518c-.02-.038.02.037 0 0M918.002 597l.224-.371s-.02.271-.123.321zM918 597c0-.002-.233.388-.233.388s.017-.289.126-.338zM852.528 594.482c.018.036-.018-.035 0 0"/><path fill="#BCC1C3" d="M370.42 592.96c.488.292.798.755 1.107 1.218-.29.088-.811.29-.833.246-.2-.406-.314-.855-.274-1.464"/><path fill="#C7CBCD" d="M390.124 588.206q.273-.125.767.572-.274.126-.767-.572M402.422 587.787c.167.052.223.17.278.289-.13-.074-.26-.148-.278-.289"/><path fill="#D8DADB" d="M939.996 601.995c-.003-.005-.235.39-.235.39s.024-.288.136-.333.103-.052.1-.057M937.52 601.53c-.035.017.036-.018 0 0"/></svg>